<svg width="915" height="600" viewBox="0 0 915 600" fill="none" xmlns="http://www.w3.org/2000/svg">
<rect x="56.3817" y="355.205" width="422.599" height="5.98018" transform="rotate(-45 56.3817 355.205)" fill="#131313"/>
<rect y="298.823" width="422.599" height="5.98018" transform="rotate(-45 0 298.823)" fill="#131313"/>
<rect x="67.6578" y="366.481" width="422.599" height="5.98018" transform="rotate(-45 67.6578 366.481)" fill="#131313"/>
<rect x="11.2764" y="310.099" width="422.599" height="5.98018" transform="rotate(-45 11.2764 310.099)" fill="#131313"/>
<rect x="78.9344" y="377.757" width="422.599" height="5.98018" transform="rotate(-45 78.9344 377.757)" fill="#131313"/>
<rect x="22.5527" y="321.376" width="422.599" height="5.98018" transform="rotate(-45 22.5527 321.376)" fill="#131313"/>
<rect x="90.2106" y="389.034" width="422.599" height="5.98018" transform="rotate(-45 90.2106 389.034)" fill="#131313"/>
<rect x="33.8291" y="332.652" width="422.599" height="5.98018" transform="rotate(-45 33.8291 332.652)" fill="#131313"/>
<rect x="101.487" y="400.31" width="422.599" height="5.98018" transform="rotate(-45 101.487 400.31)" fill="#131313"/>
<rect x="45.1053" y="343.928" width="422.599" height="5.98018" transform="rotate(-45 45.1053 343.928)" fill="#131313"/>
<rect x="112.763" y="411.586" width="422.599" height="5.98018" transform="rotate(-45 112.763 411.586)" fill="#131313"/>
<rect x="56.3817" y="355.205" width="422.599" height="5.98018" transform="rotate(-45 56.3817 355.205)" fill="#131313"/>
<rect y="298.823" width="422.599" height="5.98018" transform="rotate(-45 0 298.823)" fill="#131313"/>
<rect x="67.6578" y="366.481" width="422.599" height="5.98018" transform="rotate(-45 67.6578 366.481)" fill="#131313"/>
<rect x="11.2764" y="310.099" width="422.599" height="5.98018" transform="rotate(-45 11.2764 310.099)" fill="#131313"/>
<rect x="78.9344" y="377.757" width="422.599" height="5.98018" transform="rotate(-45 78.9344 377.757)" fill="#131313"/>
<rect x="22.5527" y="321.376" width="422.599" height="5.98018" transform="rotate(-45 22.5527 321.376)" fill="#131313"/>
<rect x="90.2106" y="389.034" width="422.599" height="5.98018" transform="rotate(-45 90.2106 389.034)" fill="#131313"/>
<rect x="33.8291" y="332.652" width="422.599" height="5.98018" transform="rotate(-45 33.8291 332.652)" fill="#131313"/>
<rect x="101.487" y="400.31" width="422.599" height="5.98018" transform="rotate(-45 101.487 400.31)" fill="#131313"/>
<rect x="45.1053" y="343.928" width="422.599" height="5.98018" transform="rotate(-45 45.1053 343.928)" fill="#131313"/>
<rect x="112.763" y="411.586" width="422.599" height="5.98018" transform="rotate(-45 112.763 411.586)" fill="#131313"/>
<rect x="357.453" y="543.433" width="261.73" height="5.98018" transform="rotate(-135 357.453 543.433)" fill="#131313"/>
<rect x="301.071" y="599.815" width="261.73" height="5.98018" transform="rotate(-135 301.071 599.815)" fill="#131313"/>
<rect x="368.729" y="532.157" width="261.73" height="5.98018" transform="rotate(-135 368.729 532.157)" fill="#131313"/>
<rect x="312.347" y="588.539" width="261.73" height="5.98018" transform="rotate(-135 312.347 588.539)" fill="#131313"/>
<rect x="380.005" y="520.881" width="261.73" height="5.98018" transform="rotate(-135 380.005 520.881)" fill="#131313"/>
<rect x="323.624" y="577.262" width="261.73" height="5.98018" transform="rotate(-135 323.624 577.262)" fill="#131313"/>
<rect x="391.282" y="509.604" width="261.73" height="5.98018" transform="rotate(-135 391.282 509.604)" fill="#131313"/>
<rect x="334.9" y="565.986" width="261.73" height="5.98018" transform="rotate(-135 334.9 565.986)" fill="#131313"/>
<rect x="402.558" y="498.328" width="261.73" height="5.98018" transform="rotate(-135 402.558 498.328)" fill="#131313"/>
<rect x="346.177" y="554.71" width="261.73" height="5.98018" transform="rotate(-135 346.177 554.71)" fill="#131313"/>
<rect x="413.835" y="487.052" width="261.73" height="5.98018" transform="rotate(-135 413.835 487.052)" fill="#131313"/>
<rect x="357.453" y="543.433" width="261.73" height="5.98018" transform="rotate(-135 357.453 543.433)" fill="#131313"/>
<rect x="301.071" y="599.815" width="261.73" height="5.98018" transform="rotate(-135 301.071 599.815)" fill="#131313"/>
<rect x="368.729" y="532.157" width="261.73" height="5.98018" transform="rotate(-135 368.729 532.157)" fill="#131313"/>
<rect x="312.347" y="588.539" width="261.73" height="5.98018" transform="rotate(-135 312.347 588.539)" fill="#131313"/>
<rect x="380.005" y="520.881" width="261.73" height="5.98018" transform="rotate(-135 380.005 520.881)" fill="#131313"/>
<rect x="323.624" y="577.262" width="261.73" height="5.98018" transform="rotate(-135 323.624 577.262)" fill="#131313"/>
<rect x="391.282" y="509.604" width="261.73" height="5.98018" transform="rotate(-135 391.282 509.604)" fill="#131313"/>
<rect x="334.9" y="565.986" width="261.73" height="5.98018" transform="rotate(-135 334.9 565.986)" fill="#131313"/>
<rect x="402.558" y="498.328" width="261.73" height="5.98018" transform="rotate(-135 402.558 498.328)" fill="#131313"/>
<rect x="346.177" y="554.71" width="261.73" height="5.98018" transform="rotate(-135 346.177 554.71)" fill="#131313"/>
<rect x="413.835" y="487.052" width="261.73" height="5.98018" transform="rotate(-135 413.835 487.052)" fill="#131313"/>
<rect x="857.682" y="244.611" width="422.599" height="5.98018" transform="rotate(135 857.682 244.611)" fill="#131313"/>
<rect x="914.063" y="300.992" width="422.599" height="5.98018" transform="rotate(135 914.063 300.992)" fill="#131313"/>
<rect x="846.405" y="233.334" width="422.599" height="5.98018" transform="rotate(135 846.405 233.334)" fill="#131313"/>
<rect x="902.787" y="289.716" width="422.599" height="5.98018" transform="rotate(135 902.787 289.716)" fill="#131313"/>
<rect x="835.129" y="222.058" width="422.599" height="5.98018" transform="rotate(135 835.129 222.058)" fill="#131313"/>
<rect x="891.51" y="278.439" width="422.599" height="5.98018" transform="rotate(135 891.51 278.439)" fill="#131313"/>
<rect x="823.853" y="210.782" width="422.599" height="5.98018" transform="rotate(135 823.853 210.782)" fill="#131313"/>
<rect x="880.234" y="267.163" width="422.599" height="5.98018" transform="rotate(135 880.234 267.163)" fill="#131313"/>
<rect x="812.576" y="199.505" width="422.599" height="5.98018" transform="rotate(135 812.576 199.505)" fill="#131313"/>
<rect x="868.958" y="255.887" width="422.599" height="5.98018" transform="rotate(135 868.958 255.887)" fill="#131313"/>
<rect x="801.3" y="188.229" width="422.599" height="5.98018" transform="rotate(135 801.3 188.229)" fill="#131313"/>
<rect x="857.682" y="244.611" width="422.599" height="5.98018" transform="rotate(135 857.682 244.611)" fill="#131313"/>
<rect x="914.063" y="300.992" width="422.599" height="5.98018" transform="rotate(135 914.063 300.992)" fill="#131313"/>
<rect x="846.405" y="233.334" width="422.599" height="5.98018" transform="rotate(135 846.405 233.334)" fill="#131313"/>
<rect x="902.787" y="289.716" width="422.599" height="5.98018" transform="rotate(135 902.787 289.716)" fill="#131313"/>
<rect x="835.129" y="222.058" width="422.599" height="5.98018" transform="rotate(135 835.129 222.058)" fill="#131313"/>
<rect x="891.51" y="278.439" width="422.599" height="5.98018" transform="rotate(135 891.51 278.439)" fill="#131313"/>
<rect x="823.853" y="210.782" width="422.599" height="5.98018" transform="rotate(135 823.853 210.782)" fill="#131313"/>
<rect x="880.234" y="267.163" width="422.599" height="5.98018" transform="rotate(135 880.234 267.163)" fill="#131313"/>
<rect x="812.576" y="199.505" width="422.599" height="5.98018" transform="rotate(135 812.576 199.505)" fill="#131313"/>
<rect x="868.958" y="255.887" width="422.599" height="5.98018" transform="rotate(135 868.958 255.887)" fill="#131313"/>
<rect x="801.3" y="188.229" width="422.599" height="5.98018" transform="rotate(135 801.3 188.229)" fill="#131313"/>
<rect x="556.61" y="56.382" width="261.73" height="5.98018" transform="rotate(45 556.61 56.382)" fill="#131313"/>
<rect x="612.992" y="0.000244141" width="261.73" height="5.98018" transform="rotate(45 612.992 0.000244141)" fill="#131313"/>
<rect x="545.334" y="67.658" width="261.73" height="5.98018" transform="rotate(45 545.334 67.658)" fill="#131313"/>
<rect x="601.716" y="11.2766" width="261.73" height="5.98018" transform="rotate(45 601.716 11.2766)" fill="#131313"/>
<rect x="534.058" y="78.9346" width="261.73" height="5.98018" transform="rotate(45 534.058 78.9346)" fill="#131313"/>
<rect x="590.439" y="22.553" width="261.73" height="5.98018" transform="rotate(45 590.439 22.553)" fill="#131313"/>
<rect x="522.781" y="90.2108" width="261.73" height="5.98018" transform="rotate(45 522.781 90.2108)" fill="#131313"/>
<rect x="579.163" y="33.8294" width="261.73" height="5.98018" transform="rotate(45 579.163 33.8294)" fill="#131313"/>
<rect x="511.505" y="101.487" width="261.73" height="5.98018" transform="rotate(45 511.505 101.487)" fill="#131313"/>
<rect x="567.887" y="45.1056" width="261.73" height="5.98018" transform="rotate(45 567.887 45.1056)" fill="#131313"/>
<rect x="500.229" y="112.764" width="261.73" height="5.98018" transform="rotate(45 500.229 112.764)" fill="#131313"/>
<rect x="556.61" y="56.382" width="261.73" height="5.98018" transform="rotate(45 556.61 56.382)" fill="#131313"/>
<rect x="612.992" y="0.000244141" width="261.73" height="5.98018" transform="rotate(45 612.992 0.000244141)" fill="#131313"/>
<rect x="545.334" y="67.658" width="261.73" height="5.98018" transform="rotate(45 545.334 67.658)" fill="#131313"/>
<rect x="601.716" y="11.2766" width="261.73" height="5.98018" transform="rotate(45 601.716 11.2766)" fill="#131313"/>
<rect x="534.058" y="78.9346" width="261.73" height="5.98018" transform="rotate(45 534.058 78.9346)" fill="#131313"/>
<rect x="590.439" y="22.553" width="261.73" height="5.98018" transform="rotate(45 590.439 22.553)" fill="#131313"/>
<rect x="522.781" y="90.2108" width="261.73" height="5.98018" transform="rotate(45 522.781 90.2108)" fill="#131313"/>
<rect x="579.163" y="33.8294" width="261.73" height="5.98018" transform="rotate(45 579.163 33.8294)" fill="#131313"/>
<rect x="511.505" y="101.487" width="261.73" height="5.98018" transform="rotate(45 511.505 101.487)" fill="#131313"/>
<rect x="567.887" y="45.1056" width="261.73" height="5.98018" transform="rotate(45 567.887 45.1056)" fill="#131313"/>
<rect x="500.229" y="112.764" width="261.73" height="5.98018" transform="rotate(45 500.229 112.764)" fill="#131313"/>
<path d="M639 260L795.197 188.197L681.197 302.197L639 260Z" fill="#131313"/>
<path d="M273.197 339.197L117 411L231 297L273.197 339.197Z" fill="url(#paint0_linear_102_619)"/>
<defs>
<linearGradient id="paint0_linear_102_619" x1="215.5" y1="366.5" x2="189" y2="327.5" gradientUnits="userSpaceOnUse">
<stop stop-color="#131313"/>
<stop offset="1"/>
</linearGradient>
</defs>
</svg>
